<?xml version="1.0" encoding="UTF-8" standalone="no"?>
<svg
   xmlns:dc="http://purl.org/dc/elements/1.1/"
   xmlns:cc="http://creativecommons.org/ns#"
   xmlns:rdf="http://www.w3.org/1999/02/22-rdf-syntax-ns#"
   xmlns:svg="http://www.w3.org/2000/svg"
   xmlns="http://www.w3.org/2000/svg"
   xmlns:sodipodi="http://sodipodi.sourceforge.net/DTD/sodipodi-0.dtd"
   xmlns:inkscape="http://www.inkscape.org/namespaces/inkscape"
   xml:space="preserve"
   viewBox="19 19 134.072 197.15872"
   height="267.83826"
   width="182.13554"
   y="0px"
   x="0px"
   id="Layer_1"
   version="1.1"
   sodipodi:docname="typescript-derivations.svg"
   inkscape:version="0.92.3 (unknown)"><metadata
     id="metadata8"><rdf:RDF><cc:Work
         rdf:about=""><dc:format>image/svg+xml</dc:format><dc:type
           rdf:resource="http://purl.org/dc/dcmitype/StillImage" /><dc:title></dc:title></cc:Work></rdf:RDF></metadata><defs
     id="defs6" /><sodipodi:namedview
     pagecolor="#ffffff"
     bordercolor="#666666"
     borderopacity="1"
     objecttolerance="10"
     gridtolerance="10"
     guidetolerance="10"
     inkscape:pageopacity="0"
     inkscape:pageshadow="2"
     inkscape:window-width="2279"
     inkscape:window-height="1369"
     id="namedview4"
     showgrid="false"
     inkscape:zoom="1.6388889"
     inkscape:cx="64.659346"
     inkscape:cy="156.22403"
     inkscape:window-x="770"
     inkscape:window-y="296"
     inkscape:window-maximized="0"
     inkscape:current-layer="Layer_1"
     fit-margin-top="0"
     fit-margin-left="0"
     fit-margin-right="0"
     fit-margin-bottom="0" /><g
     style="fill:#007acc;stroke:none"
     transform="matrix(0.02128127,0,0,-0.02128127,19,216.15871)"
     id="g4"><path
       inkscape:connector-curvature="0"
       d="M 0,3150 V 0 H 3150 6300 V 3150 6300 H 3150 0 Z m 5077,251 c 160,-40 282,-111 394,-227 58,-62 144,-175 151,-202 2,-8 -272,-192 -438,-295 -6,-4 -30,22 -57,62 -81,118 -166,169 -296,178 -191,13 -314,-87 -313,-254 0,-49 7,-78 27,-118 42,-87 120,-139 365,-245 451,-194 644,-322 764,-504 134,-203 164,-527 73,-768 -100,-262 -348,-440 -697,-499 -108,-19 -364,-16 -480,5 -253,45 -493,170 -641,334 -58,64 -171,231 -164,243 3,4 29,20 58,37 28,16 134,77 234,135 l 181,105 38,-56 c 53,-81 169,-192 239,-229 201,-106 477,-91 613,31 58,53 82,108 82,189 0,73 -9,105 -47,160 -49,70 -149,129 -433,252 -325,140 -465,227 -593,365 -74,80 -144,208 -173,315 -24,89 -30,312 -11,402 67,314 304,533 646,598 111,21 369,13 478,-14 z m -1479,-263 2,-258 H 3190 2780 V 1715 550 h -290 -290 v 1165 1165 h -410 -410 v 253 c 0,140 3,257 7,260 3,4 502,6 1107,5 l 1101,-3 z"
       id="path2" /></g><path
     id="path3"
     d="m 148.63278,78.81173 -5.14824,-3.18689 c -0.0434,-0.50146 -0.0926,-1.00176 -0.14646,-1.49972 l 4.42417,-4.12656 c 0.44991,-0.41945 0.65144,-1.04043 0.52959,-1.64149 -0.11834,-0.6034 -0.5413,-1.10018 -1.11659,-1.31459 l -5.65557,-2.11484 c -0.14177,-0.48975 -0.29057,-0.97599 -0.44289,-1.45988 l 3.52785,-4.89985 c 0.35971,-0.49795 0.43352,-1.14588 0.19918,-1.71412 -0.23433,-0.56592 -0.74634,-0.97131 -1.35209,-1.0709 l -5.96372,-0.97013 c -0.23197,-0.45225 -0.47333,-0.89749 -0.71704,-1.3392 l 2.50617,-5.50091 c 0.25659,-0.56006 0.20387,-1.21149 -0.13827,-1.71999 -0.34094,-0.51084 -0.91856,-0.80961 -1.53486,-0.78618 l -6.05276,0.2109 c -0.31283,-0.39134 -0.63152,-0.77915 -0.95607,-1.15994 l 1.39076,-5.89577 c 0.1406,-0.5987 -0.0363,-1.22554 -0.47218,-1.66021 -0.43234,-0.43352 -1.06035,-0.61279 -1.65906,-0.47218 l -5.89458,1.38957 c -0.38197,-0.32338 -0.76978,-0.64323 -1.16229,-0.95608 l 0.21207,-6.05275 c 0.0234,-0.61277 -0.27535,-1.1951 -0.78618,-1.53487 -0.51201,-0.34212 -1.15994,-0.39367 -1.71882,-0.13943 l -5.49973,2.50734 c -0.44406,-0.2437 -0.88929,-0.48505 -1.33921,-0.71822 l -0.97247,-5.96489 c -0.0984,-0.60457 -0.50381,-1.11775 -1.0709,-1.35208 -0.5659,-0.2355 -1.215,-0.15935 -1.71295,0.19918 l -4.90336,3.52787 c -0.48272,-0.1535 -0.9678,-0.30112 -1.45754,-0.44172 l -2.11484,-5.65677 c -0.21441,-0.57644 -0.7112,-0.99941 -1.3146,-1.11892 -0.602226,-0.11833 -1.222026,0.082 -1.640306,0.52959 l -4.12656,4.42767 c -0.49795,-0.0551 -0.99942,-0.10542 -1.49972,-0.14646 L 89.665824,19.8389 C 89.343604,19.31752 88.773024,19 88.159074,19 c -0.61395,0 -1.18455,0.31752 -1.50558,0.8389 l -3.1869,5.14941 c -0.50146,0.0411 -1.00292,0.0914 -1.50088,0.14646 l -4.12773,-4.42767 c -0.41829,-0.44757 -1.03926,-0.64792 -1.64033,-0.52959 -0.6034,0.12069 -1.100179,0.54248 -1.314588,1.11892 l -2.114832,5.65677 c -0.489756,0.1406 -0.974814,0.28939 -1.458715,0.44172 l -4.902195,-3.52787 c -0.497951,-0.3597 -1.147048,-0.43585 -1.714128,-0.19918 -0.565908,0.23433 -0.972472,0.74751 -1.070892,1.35208 l -0.972472,5.96489 c -0.449914,0.23317 -0.895143,0.47334 -1.339199,0.71822 l -5.499742,-2.50734 c -0.558879,-0.25541 -1.210318,-0.20269 -1.718815,0.13943 -0.510841,0.33977 -0.809613,0.9221 -0.78618,1.53487 l 0.210898,6.05275 c -0.391331,0.31285 -0.779149,0.6327 -1.16228,0.95608 l -5.894588,-1.38957 c -0.598715,-0.13944 -1.226721,0.0386 -1.660233,0.47218 -0.435855,0.43467 -0.612775,1.06151 -0.472176,1.66021 l 1.388408,5.89577 c -0.322204,0.38196 -0.640893,0.7686 -0.953725,1.15994 l -6.052761,-0.2109 c -0.610432,-0.0176 -1.193915,0.27534 -1.534866,0.78618 -0.342123,0.5085 -0.393676,1.15993 -0.139427,1.71999 l 2.507338,5.50091 c -0.243704,0.44171 -0.485063,0.88695 -0.718223,1.3392 l -5.963715,0.97013 c -0.605746,0.0984 -1.116587,0.50382 -1.352089,1.0709 -0.234331,0.56824 -0.158173,1.21617 0.199181,1.71412 l 3.527848,4.89985 c -0.153486,0.48389 -0.302285,0.97013 -0.442885,1.45988 l -5.656742,2.11484 c -0.57411,0.21441 -0.997077,0.71119 -1.116587,1.31459 -0.119508,0.60224 0.08085,1.22204 0.529589,1.64149 l 4.425334,4.12656 c -0.05506,0.49796 -0.104278,0.99942 -0.146456,1.49972 l -5.148245,3.18689 c -0.521386,0.3222 -0.838904,0.89164 -0.838904,1.50676 0,0.61512 0.317518,1.18453 0.838904,1.50556 l 5.148245,3.1869 c 0.04218,0.50147 0.09138,1.00177 0.146456,1.49972 l -4.425334,4.12773 c -0.448743,0.41828 -0.649097,1.03926 -0.529589,1.64031 0.11951,0.6034 0.542477,1.09902 1.116587,1.3146 l 5.656742,2.11484 c 0.1406,0.48976 0.289399,0.97598 0.442885,1.45988 l -3.527848,4.90103 c -0.358526,0.49912 -0.434683,1.14704 -0.199181,1.71295 0.235502,0.56825 0.747515,0.97365 1.35326,1.07088 l 5.962544,0.97014 c 0.23316,0.45226 0.472175,0.89748 0.718223,1.34154 l -2.507338,5.49858 c -0.25542,0.55887 -0.202696,1.20914 0.139427,1.71998 0.342122,0.51201 0.924434,0.81079 1.534866,0.78618 l 6.050418,-0.21207 c 0.315175,0.39368 0.632693,0.77915 0.956068,1.16228 l -1.388408,5.89694 c -0.140599,0.59754 0.03632,1.22203 0.472176,1.65672 0.432341,0.43702 1.061518,0.6116 1.660233,0.471 l 5.894588,-1.38841 c 0.383131,0.32572 0.770949,0.64207 1.16228,0.95373 l -0.210898,6.05393 c -0.02344,0.61278 0.275339,1.19392 0.78618,1.53604 0.508497,0.34095 1.159936,0.3925 1.718815,0.13708 l 5.499742,-2.50617 c 0.442885,0.24605 0.888113,0.48507 1.339199,0.71823 l 0.972472,5.96137 c 0.09842,0.60692 0.503812,1.1201 1.070892,1.35326 0.565908,0.2355 1.216177,0.15934 1.714128,-0.19801 l 4.899851,-3.53019 c 0.483901,0.15349 0.970136,0.30346 1.459882,0.44406 l 2.114841,5.6544 c 0.21441,0.5741 0.711196,0.99941 1.314586,1.11658 0.60224,0.12185 1.22204,-0.0797 1.64032,-0.52959 l 4.12773,-4.42533 c 0.49796,0.0574 0.99943,0.10544 1.5009,0.14997 l 3.18689,5.14824 c 0.32104,0.51905 0.89163,0.83891 1.50558,0.83891 0.61394,0 1.18454,-0.31869 1.50674,-0.83891 l 3.1869,-5.14824 c 0.50147,-0.0445 1.00176,-0.0926 1.49972,-0.14997 l 4.12657,4.42533 c 0.41828,0.44992 1.03924,0.65144 1.640296,0.52959 0.60342,-0.11834 1.10019,-0.54248 1.31459,-1.11658 l 2.11485,-5.6544 c 0.48975,-0.1406 0.97599,-0.29057 1.45987,-0.44406 l 4.90103,3.53019 c 0.49795,0.35735 1.14705,0.43351 1.71296,0.19801 0.56708,-0.23316 0.97247,-0.74752 1.0709,-1.35326 l 0.97246,-5.96137 c 0.44991,-0.23316 0.89514,-0.47569 1.3392,-0.71823 l 5.49974,2.50617 c 0.55889,0.25542 1.20915,0.20387 1.71882,-0.13708 0.51085,-0.34212 0.80844,-0.92209 0.78618,-1.53604 l -0.2109,-6.05393 c 0.39133,-0.31283 0.77914,-0.62801 1.16111,-0.95373 l 5.89459,1.38841 c 0.59871,0.1406 1.22672,-0.034 1.65906,-0.471 0.43585,-0.43469 0.61277,-1.05918 0.47217,-1.65672 l -1.3884,-5.89694 c 0.32337,-0.38313 0.64206,-0.7686 0.95372,-1.16228 l 6.05275,0.21207 c 0.61045,0.0246 1.19393,-0.27417 1.53488,-0.78618 0.34212,-0.51084 0.39484,-1.16111 0.13826,-1.71998 l -2.50618,-5.49858 c 0.24489,-0.44406 0.48507,-0.88928 0.71707,-1.34154 l 5.96371,-0.97014 c 0.60691,-0.0972 1.11775,-0.50263 1.35207,-1.07088 0.23434,-0.56591 0.16053,-1.21383 -0.19917,-1.71295 l -3.52785,-4.90103 c 0.15231,-0.4839 0.30112,-0.97012 0.44289,-1.45988 l 5.65557,-2.11484 c 0.57528,-0.21558 0.99942,-0.7112 1.11659,-1.3146 0.12185,-0.60222 -0.0796,-1.22203 -0.52959,-1.64031 l -4.42417,-4.12773 c 0.0538,-0.49795 0.10315,-0.99943 0.14646,-1.49972 l 5.14825,-3.1869 c 0.52138,-0.32103 0.8389,-0.89162 0.8389,-1.50556 0,-0.61396 -0.31634,-1.18456 -0.83774,-1.50676 z m -34.45715,42.70795 c -1.96604,-0.42414 -3.21618,-2.36206 -2.79439,-4.33395 0.42063,-1.96955 2.35737,-3.22322 4.32223,-2.79908 1.96604,0.42062 3.21853,2.36205 2.79673,4.33043 -0.42179,1.96838 -2.3597,3.22322 -4.32457,2.8026 z m -1.74927,-11.83137 c -1.7938,-0.3843 -3.55832,0.75689 -3.94262,2.55421 l -1.82779,8.52964 c -5.64032,2.56007 -11.903986,3.98245 -18.500386,3.98245 -6.74756,0 -13.147134,-1.49268 -18.888234,-4.16171 l -1.826607,-8.52964 c -0.384302,-1.79498 -2.148812,-2.93851 -3.941442,-2.55304 l -7.530216,1.61688 c -1.397783,-1.43879 -2.698318,-2.97131 -3.893404,-4.58937 h 36.639953 c 0.41476,0 0.69127,-0.075 0.69127,-0.45225 V 93.12465 c 0,-0.37728 -0.27651,-0.45226 -0.69127,-0.45226 h -10.71595 v -8.21563 h 11.59 c 1.058,0 5.65674,0.30229 7.12717,6.18048 0.46046,1.80785 1.4716,7.68839 2.16287,9.57122 0.68893,2.11133 3.493856,6.32927 6.482746,6.32927 h 18.25788 c 0.20738,0 0.42882,-0.0234 0.66198,-0.0656 -1.26655,1.72116 -2.65613,3.34976 -4.15233,4.87173 z m -50.676358,11.65327 c -1.966034,0.42414 -3.901605,-0.82953 -4.324573,-2.79907 -0.420623,-1.97307 0.829531,-3.90982 2.795566,-4.33396 1.966034,-0.42062 3.902777,0.83305 4.324572,2.8026 0.420623,1.96838 -0.830701,3.90864 -2.795565,4.33043 z M 47.850679,64.97919 c 0.81547,1.84068 -0.01406,3.99769 -1.852384,4.81199 -1.838325,0.81664 -3.98948,-0.014 -4.804951,-1.8559 -0.815471,-1.84184 0.01406,-3.99535 1.852384,-4.81198 1.839496,-0.81547 3.989479,0.014 4.804951,1.85589 z M 43.57883,75.1058 51.423049,71.62012 c 1.675465,-0.74399 2.432353,-2.70768 1.688353,-4.38666 l -1.615711,-3.65322 h 6.353878 V 92.22013 H 45.030508 c -1.111898,-3.90863 -1.70827,-8.03403 -1.70827,-12.29766 0,-1.62743 0.08788,-3.23611 0.256592,-4.81667 z m 34.423174,-2.78151 v -8.44176 h 15.13074 c 0.7815,0 5.51849,0.90334 5.51849,4.44526 0,2.94084 -3.63329,3.99533 -6.62102,3.99533 h -14.02821 z m 54.988046,7.59818 c 0,1.12009 -0.0411,2.22848 -0.12303,3.32866 h -4.59991 c -0.46046,0 -0.64558,0.3023 -0.64558,0.75337 v 2.1125 c 0,4.97249 -2.80377,6.05393 -5.26073,6.32927 -2.33979,0.26362 -4.93383,-0.97951 -5.2537,-2.41127 -1.3802,-7.76337 -3.68016,-9.42127 -7.31228,-12.28595 4.50735,-2.86235 9.19748,-7.08499 9.19748,-12.73706 0,-6.10313 -4.18398,-9.94733 -7.03577,-11.83252 -4.00121,-2.63738 -8.43123,-3.1658 -9.62631,-3.1658 H 54.757575 C 61.208699,42.81386 69.951576,37.71365 79.840344,35.85776 l 5.60753,5.88286 c 1.26771,1.32748 3.36733,1.3767 4.69363,0.1078 l 6.27421,-6.00122 c 13.147116,2.44759 24.277826,10.6316 30.692626,21.85955 l -4.29528,9.70129 c -0.74166,1.67898 0.0153,3.64267 1.68953,4.38666 l 8.26952,3.67314 c 0.14294,1.46809 0.21794,2.95139 0.21794,4.45463 z M 85.450204,30.85362 c 1.45286,-1.39193 3.75751,-1.33686 5.14826,0.11834 1.3884,1.4587 1.33568,3.76569 -0.12068,5.15644 -1.45285,1.39193 -3.7575,1.33803 -5.14825,-0.1195 -1.38724,-1.45637 -1.33452,-3.76336 0.12067,-5.15528 z m 42.624746,34.3025 c 0.8143,-1.84066 2.96546,-2.67138 4.80379,-1.85473 1.83831,0.81547 2.66785,2.97132 1.85238,4.81198 -0.8143,1.84184 -2.96546,2.67254 -4.80495,1.85589 -1.83598,-0.81545 -2.66552,-2.97013 -1.85122,-4.81314 z"
     inkscape:connector-curvature="0"
     style="stroke-width:1.17165327" /></svg>