<?xml version="1.0" encoding="UTF-8" standalone="no"?>
<svg
   xmlns:dc="http://purl.org/dc/elements/1.1/"
   xmlns:cc="http://creativecommons.org/ns#"
   xmlns:rdf="http://www.w3.org/1999/02/22-rdf-syntax-ns#"
   xmlns:svg="http://www.w3.org/2000/svg"
   xmlns="http://www.w3.org/2000/svg"
   xmlns:sodipodi="http://sodipodi.sourceforge.net/DTD/sodipodi-0.dtd"
   xmlns:inkscape="http://www.inkscape.org/namespaces/inkscape"
   viewBox="19 19 134.072 197.159"
   height="267.83801"
   width="182.136"
   version="1.1"
   id="typescript-defintions"
   sodipodi:docname="typescript-derivations.svg"
   inkscape:version="0.92.3 (unknown)">
  <metadata
     id="metadata12">
    <rdf:RDF>
      <cc:Work
         rdf:about="">
        <dc:format>image/svg+xml</dc:format>
        <dc:type
           rdf:resource="http://purl.org/dc/dcmitype/StillImage" />
      </cc:Work>
    </rdf:RDF>
  </metadata>
  <defs />
  <sodipodi:namedview
     pagecolor="#ffffff"
     bordercolor="#666666"
     borderopacity="1"
     objecttolerance="10"
     gridtolerance="10"
     guidetolerance="10"
     inkscape:pageopacity="0"
     inkscape:pageshadow="2"
     inkscape:window-width="2679"
     inkscape:window-height="1641"
     id="namedview8"
     showgrid="false"
     inkscape:zoom="4.9844217"
     inkscape:cx="93.337814"
     inkscape:cy="133.91901"
     inkscape:window-x="923"
     inkscape:window-y="177"
     inkscape:window-maximized="0"
     inkscape:current-layer="typescript-defintions" />
  <path
     d="m 19,149.123 v 67.036 H 153.072 V 82.087 H 19 Z m 108.045,-5.342 c 3.405,0.851 6.001,2.362 8.385,4.831 1.234,1.32 3.064,3.724 3.213,4.299 0.043,0.17 -5.788,4.086 -9.32,6.278 -0.129,0.085 -0.64,-0.468 -1.214,-1.32 -1.724,-2.51 -3.533,-3.596 -6.3,-3.788 -4.064,-0.276 -6.682,1.852 -6.66,5.406 0,1.042 0.149,1.66 0.574,2.51 0.894,1.852 2.554,2.959 7.768,5.215 9.598,4.128 13.705,6.852 16.259,10.726 2.852,4.32 3.49,11.215 1.553,16.344 -2.128,5.575 -7.405,9.363 -14.833,10.619 -2.298,0.404 -7.746,0.34 -10.215,-0.106 -5.384,-0.958 -10.491,-3.618 -13.64,-7.108 -1.235,-1.362 -3.64,-4.916 -3.491,-5.172 0.064,-0.085 0.617,-0.425 1.234,-0.787 0.596,-0.34 2.852,-1.639 4.98,-2.873 l 3.852,-2.235 0.809,1.192 c 1.128,1.724 3.596,4.086 5.086,4.873 4.277,2.256 10.151,1.937 13.045,-0.66 1.235,-1.127 1.745,-2.298 1.745,-4.021 0,-1.554 -0.191,-2.235 -1,-3.405 -1.043,-1.49 -3.17,-2.746 -9.215,-5.363 -6.916,-2.98 -9.895,-4.831 -12.62,-7.768 -1.574,-1.702 -3.064,-4.426 -3.681,-6.704 -0.51,-1.894 -0.638,-6.64 -0.234,-8.555 1.426,-6.682 6.47,-11.343 13.748,-12.726 2.362,-0.447 7.852,-0.276 10.172,0.298 z m -31.475,5.597 0.043,5.49 H 78.162 v 49.586 H 65.819 V 154.869 H 48.368 v -5.385 c 0,-2.979 0.064,-5.469 0.15,-5.533 0.063,-0.085 10.682,-0.127 23.557,-0.106 l 23.431,0.064 z"
     id="typescript"
     inkscape:connector-curvature="0"
     style="fill:#007acc" />
  <path
     d="m 147.16077,80.284226 -5.148,-3.187 a 70.404,70.404 0 0 0 -0.147,-1.5 l 4.424,-4.125 c 0.45,-0.42 0.652,-1.04 0.53,-1.642 a 1.765,1.765 0 0 0 -1.117,-1.315 l -5.655,-2.114 c -0.142,-0.49 -0.29,-0.976 -0.443,-1.46 l 3.528,-4.9 a 1.772,1.772 0 0 0 -1.153,-2.785 l -5.964,-0.97 a 50.195,50.195 0 0 0 -0.717,-1.34 l 2.506,-5.5 a 1.764,1.764 0 0 0 -0.138,-1.72 c -0.341,-0.511 -0.919,-0.81 -1.535,-0.787 l -6.053,0.211 c -0.313,-0.391 -0.631,-0.779 -0.956,-1.16 l 1.39,-5.895 a 1.771,1.771 0 0 0 -2.131,-2.132 l -5.894,1.389 a 50.92,50.92 0 0 0 -1.162,-0.956 l 0.212,-6.053 a 1.765,1.765 0 0 0 -0.786,-1.535 1.77,1.77 0 0 0 -1.72,-0.14 l -5.499,2.508 c -0.444,-0.244 -0.89,-0.485 -1.339,-0.718 l -0.973,-5.965 a 1.772,1.772 0 0 0 -2.783,-1.153 l -4.904,3.528 a 53.765,53.765 0 0 0 -1.457,-0.442 l -2.114996,-5.657 c -0.215,-0.576 -0.711,-0.999 -1.315,-1.118 a 1.776,1.776 0 0 0 -1.64,0.53 l -4.127,4.427 c -0.498,-0.055 -0.999,-0.106 -1.5,-0.147 l -3.186,-5.15 a 1.771,1.771 0 0 0 -3.013,0 l -3.186,5.15 c -0.502,0.041 -1.003,0.092 -1.501,0.147 l -4.128,-4.428 a 1.77,1.77 0 0 0 -2.955,0.59 l -2.115,5.656 c -0.49,0.14 -0.975,0.29 -1.458,0.442 l -4.903,-3.528 a 1.775,1.775 0 0 0 -2.785,1.153 l -0.972,5.965 c -0.45,0.233 -0.895,0.473 -1.34,0.718 l -5.5,-2.507 a 1.765,1.765 0 0 0 -1.718,0.14 c -0.51,0.339 -0.81,0.921 -0.786,1.534 l 0.21,6.053 c -0.39,0.313 -0.778,0.632 -1.161,0.956 l -5.895,-1.39 a 1.777,1.777 0 0 0 -1.66,0.472 1.77,1.77 0 0 0 -0.472,1.66 l 1.388,5.896 c -0.322,0.382 -0.641,0.769 -0.954,1.16 l -6.053,-0.21 a 1.77,1.77 0 0 0 -1.674,2.506 l 2.507,5.5 c -0.243,0.442 -0.485,0.888 -0.718,1.34 l -5.963,0.97 a 1.772,1.772 0 0 0 -1.153,2.785 l 3.527,4.9 c -0.153,0.484 -0.302,0.97 -0.442,1.46 l -5.657,2.114 a 1.773,1.773 0 0 0 -0.587,2.956 l 4.425,4.127 c -0.055,0.498 -0.104,1 -0.146,1.5 l -5.149,3.187 a 1.77,1.77 0 0 0 0,3.012 l 5.149,3.187 c 0.042,0.501 0.091,1.002 0.146,1.5 l -4.425,4.127 a 1.771,1.771 0 0 0 0.587,2.955 l 5.657,2.115 c 0.14,0.49 0.289,0.976 0.442,1.459998 l -3.527,4.901006 a 1.77,1.77 0 0 0 1.154,2.784 l 5.962,0.97 c 0.233,0.452 0.472,0.898 0.718,1.342 l -2.507,5.498 a 1.768,1.768 0 0 0 0.14,1.72 c 0.342,0.512 0.924,0.81 1.534,0.786 l 6.05,-0.212 c 0.316,0.394 0.634,0.78 0.957,1.163 l -1.388,5.896 c -0.141,0.598 0.036,1.222 0.472,1.657 a 1.764,1.764 0 0 0 1.66,0.471 l 5.895,-1.388 c 0.383,0.325 0.77,0.642 1.162,0.954 l -0.211,6.053 a 1.77,1.77 0 0 0 2.505,1.674 l 5.5,-2.507 c 0.443,0.246 0.888,0.485 1.339,0.719 l 0.972,5.961 a 1.775,1.775 0 0 0 2.785,1.155 l 4.9,-3.53 c 0.484,0.154 0.97,0.304 1.46,0.444 l 2.115,5.655 c 0.214,0.574 0.711,0.999 1.314,1.116 a 1.762,1.762 0 0 0 1.64,-0.53 l 4.129,-4.425 c 0.497,0.058 0.999,0.106 1.5,0.15 l 3.187,5.148 a 1.773,1.773 0 0 0 3.013,0 l 3.187,-5.148 a 57.562,57.562 0 0 0 1.5,-0.15 l 4.126,4.425 c 0.418,0.45 1.04,0.652 1.64,0.53 a 1.767,1.767 0 0 0 1.315,-1.116 l 2.114996,-5.655 c 0.49,-0.14 0.976,-0.29 1.46,-0.444 l 4.9,3.53 a 1.773,1.773 0 0 0 2.784,-1.155 l 0.973,-5.961 c 0.45,-0.234 0.895,-0.476 1.339,-0.719 l 5.5,2.507 a 1.768,1.768 0 0 0 2.505,-1.674 l -0.211,-6.053 c 0.391,-0.313 0.779,-0.629 1.16,-0.954 l 5.896,1.388 a 1.762,1.762 0 0 0 1.659,-0.47 c 0.435,-0.436 0.612,-1.06 0.472,-1.658 l -1.389,-5.896 c 0.324,-0.384 0.642,-0.77 0.954,-1.163 l 6.053,0.212 a 1.763,1.763 0 0 0 1.535,-0.786 c 0.342,-0.51 0.395,-1.161 0.138,-1.72 l -2.506,-5.498 c 0.245,-0.444 0.485,-0.89 0.717,-1.342 l 5.964,-0.97 a 1.77,1.77 0 0 0 1.153,-2.784 l -3.528,-4.901006 c 0.152,-0.483998 0.3,-0.969998 0.443,-1.459998 l 5.655,-2.115 c 0.575,-0.215 1,-0.71 1.117,-1.314 a 1.761,1.761 0 0 0 -0.53,-1.64 l -4.424,-4.128 c 0.054,-0.498 0.103,-1 0.146,-1.5 l 5.149,-3.187 a 1.77,1.77 0 0 0 0.001,-3.012 z m -34.457,42.708004 a 3.649,3.649 0 0 1 -2.795,-4.334 3.637,3.637 0 0 1 4.322,-2.8 3.646,3.646 0 0 1 2.797,4.331 3.646,3.646 0 0 1 -4.324,2.803 z m -1.75,-11.832 a 3.32,3.32 0 0 0 -3.942,2.555 l -1.828,8.53 a 44.645,44.645 0 0 1 -18.499996,3.982 44.688,44.688 0 0 1 -18.889,-4.162 l -1.826,-8.53 a 3.319,3.319 0 0 0 -3.942,-2.553 l -7.53,1.617 a 44.678,44.678 0 0 1 -3.893,-4.59 h 36.64 c 0.414,0 0.69,-0.074 0.69,-0.452 V 94.597226 c 0,-0.378 -0.276,-0.453 -0.69,-0.453 h -10.716 v -8.215 h 11.59 c 1.058,0 5.656,0.302 7.127,6.18 0.46,1.808 1.471,7.688998 2.163,9.571004 0.689,2.112 3.493996,6.33 6.481996,6.33 h 18.258 c 0.208,0 0.43,-0.024 0.662,-0.066 a 44.988,44.988 0 0 1 -4.152,4.872 z m -50.675996,11.654 a 3.64,3.64 0 0 1 -4.325,-2.8 3.65,3.65 0 0 1 2.796,-4.333 3.648,3.648 0 0 1 1.529,7.133 z m -13.9,-56.363004 a 3.648,3.648 0 0 1 -1.852,4.812 3.639,3.639 0 0 1 -4.805,-1.856 3.648,3.648 0 0 1 1.853,-4.812 3.64,3.64 0 0 1 4.805,1.856 z m -4.27,10.127 7.844,-3.486 a 3.326,3.326 0 0 0 1.688,-4.387 l -1.615,-3.653 h 6.354 v 28.64 h -12.821 a 44.884,44.884 0 0 1 -1.708,-12.298 c 0,-1.627 0.088,-3.236 0.257,-4.816 z m 34.423,-2.782 v -8.441 h 15.13 c 0.782,0 5.52,0.903 5.52,4.445 0,2.94 -3.634,3.995 -6.622,3.995 h -14.029 z m 54.987996,7.598 c 0,1.12 -0.041,2.229 -0.123,3.33 h -4.6 c -0.46,0 -0.645,0.301 -0.645,0.753 v 2.112 c 0,4.972 -2.804,6.054 -5.261,6.33 -2.34,0.263 -4.934,-0.98 -5.254,-2.412 -1.38,-7.763 -3.68,-9.421 -7.312,-12.286 4.507,-2.862 9.197,-7.085 9.197,-12.737 0,-6.103 -4.184,-9.947 -7.035,-11.833 -4.002,-2.637 -8.432,-3.165 -9.627,-3.165 H 53.285774 c 6.45,-7.2 15.194,-12.3 25.082,-14.156 l 5.608,5.883 a 3.316,3.316 0 0 0 4.694,0.107 l 6.274,-6 c 13.146996,2.447 24.277996,10.63 30.691996,21.859 l -4.295,9.701 a 3.33,3.33 0 0 0 1.69,4.387 l 8.27,3.673 c 0.142,1.468 0.217,2.951 0.217,4.454 z m -47.540996,-49.068 a 3.638,3.638 0 0 1 5.148,0.118 3.65,3.65 0 0 1 -0.12,5.156 3.636,3.636 0 0 1 -5.148,-0.12 3.65,3.65 0 0 1 0.12,-5.154 z m 42.624996,34.302 a 3.638,3.638 0 0 1 4.804,-1.855 3.649,3.649 0 0 1 1.852,4.812 3.638,3.638 0 0 1 -4.805,1.856 3.652,3.652 0 0 1 -1.851,-4.813 z"
     id="rust"
     inkscape:connector-curvature="0" />
</svg>
